STARTFONT 2.1
FONT -B&H-Lucida Sans Typewriter-Medium-R-Normal-Sans-24-240-72-72-M-145-ISO8859-1
SIZE 24 72 72
FONTBOUNDINGBOX 15 27 0 -5

STARTPROPERTIES 22
FONTNAME_REGISTRY "-"
FOUNDRY "B&H"
FAMILY_NAME "Lucida Sans Typewriter"
WEIGHT_NAME "Medium"
SLANT "R"
SETWIDTH_NAME "Normal"
ADD_STYLE_NAME "Sans"
SPACING "M"
CHARSET_REGISTRY "ISO8859"
CHARSET_ENCODING "1"
PIXEL_SIZE 24
POINT_SIZE 240
RESOLUTION_X 72
RESOLUTION_Y 72
AVERAGE_WIDTH 145
FULL_NAME "LucidaSans-Typewriter"
WEIGHT 10
X_HEIGHT 13
QUAD_WIDTH 14
DEFAULT_CHAR 32
FONT_DESCENT 6
FONT_ASCENT 22
ENDPROPERTIES

CHARS 149

STARTCHAR space
ENCODING 32
SWIDTH 602 0
DWIDTH 14 0
BBX 1 1 0 0
BITMAP
00
ENDCHAR

STARTCHAR exclam
ENCODING 33
SWIDTH 602 0
DWIDTH 14 0
BBX 2 17 6 0
BITMAP
C0
C0
C0
C0
C0
C0
80
80
80
80
80
80
00
00
00
C0
C0
ENDCHAR

STARTCHAR quotedbl
ENCODING 34
SWIDTH 602 0
DWIDTH 14 0
BBX 8 6 3 12
BITMAP
C3
C3
C3
82
82
82
ENDCHAR

STARTCHAR numbersign
ENCODING 35
SWIDTH 602 0
DWIDTH 14 0
BBX 13 17 1 0
BITMAP
0230
0220
0420
0420
0440
7FF8
0840
0840
0880
0880
0880
FFF0
1100
1100
2100
2100
2200
ENDCHAR

STARTCHAR dollar
ENCODING 36
SWIDTH 602 0
DWIDTH 14 0
BBX 9 19 3 -1
BITMAP
0800
3F80
6880
C800
C800
C800
E800
6800
7800
1E00
0F00
0B00
0980
0980
0980
0980
8B00
FE00
0800
ENDCHAR

STARTCHAR percent
ENCODING 37
SWIDTH 602 0
DWIDTH 14 0
BBX 13 17 1 0
BITMAP
7818
CC10
8420
8440
8440
CC80
7900
0100
0200
04F0
0598
0908
1108
1108
2198
40F0
C000
ENDCHAR

STARTCHAR ampersand
ENCODING 38
SWIDTH 602 0
DWIDTH 14 0
BBX 13 17 1 0
BITMAP
0700
0CC0
18C0
18C0
18C0
1980
0F00
1C00
2618
6618
C318
C398
C1F0
C0F0
6060
70F0
1F38
ENDCHAR

STARTCHAR quoteright
ENCODING 39
SWIDTH 602 0
DWIDTH 14 0
BBX 3 6 6 12
BITMAP
E0
E0
60
60
60
C0
ENDCHAR

STARTCHAR parenleft
ENCODING 40
SWIDTH 602 0
DWIDTH 14 0
BBX 8 22 4 -4
BITMAP
03
0F
1C
30
30
60
60
C0
C0
C0
C0
C0
C0
C0
C0
60
60
30
38
1C
0F
03
ENDCHAR

STARTCHAR parenright
ENCODING 41
SWIDTH 602 0
DWIDTH 14 0
BBX 8 22 2 -4
BITMAP
C0
F0
38
1C
0C
06
06
03
03
03
03
03
03
03
03
06
06
0C
0C
38
F0
C0
ENDCHAR

STARTCHAR asterisk
ENCODING 42
SWIDTH 602 0
DWIDTH 14 0
BBX 11 10 2 7
BITMAP
0C00
0C00
4C40
F7C0
71E0
0900
1F00
3380
7180
2100
ENDCHAR

STARTCHAR plus
ENCODING 43
SWIDTH 602 0
DWIDTH 14 0
BBX 11 13 2 0
BITMAP
0400
0400
0400
0400
0400
0400
0400
FFE0
0400
0400
0400
0400
0400
ENDCHAR

STARTCHAR comma
ENCODING 44
SWIDTH 602 0
DWIDTH 14 0
BBX 3 7 6 -4
BITMAP
E0
E0
E0
60
60
40
C0
ENDCHAR

STARTCHAR hyphen
ENCODING 45
SWIDTH 602 0
DWIDTH 14 0
BBX 10 1 2 6
BITMAP
FFC0
ENDCHAR

STARTCHAR period
ENCODING 46
SWIDTH 602 0
DWIDTH 14 0
BBX 3 3 6 0
BITMAP
E0
E0
E0
ENDCHAR

STARTCHAR slash
ENCODING 47
SWIDTH 602 0
DWIDTH 14 0
BBX 12 22 1 -4
BITMAP
0010
0030
0020
0060
0040
00C0
0080
0180
0100
0300
0200
0200
0400
0400
0800
0800
1000
1000
2000
2000
4000
C000
ENDCHAR

STARTCHAR zero
ENCODING 48
SWIDTH 602 0
DWIDTH 14 0
BBX 11 17 2 0
BITMAP
1F00
3180
60C0
60C0
4040
C060
C060
C060
C060
C060
C060
C060
4040
60C0
60C0
3180
1F00
ENDCHAR

STARTCHAR one
ENCODING 49
SWIDTH 602 0
DWIDTH 14 0
BBX 13 17 1 0
BITMAP
0100
0700
7F00
8300
0300
0300
0300
0300
0300
0300
0300
0300
0300
0300
0300
0300
7FF8
ENDCHAR

STARTCHAR two
ENCODING 50
SWIDTH 602 0
DWIDTH 14 0
BBX 9 17 2 0
BITMAP
FC00
8300
0180
0180
0180
0180
0100
0300
0600
0400
0800
1000
3000
6000
E000
FF80
FF80
ENDCHAR

STARTCHAR three
ENCODING 51
SWIDTH 602 0
DWIDTH 14 0
BBX 9 17 3 0
BITMAP
7E00
4300
0180
0180
0180
0180
0700
3E00
0600
0300
0180
0180
0180
0180
0300
8700
FC00
ENDCHAR

STARTCHAR four
ENCODING 52
SWIDTH 602 0
DWIDTH 14 0
BBX 11 17 2 0
BITMAP
0180
0380
0380
0580
0D80
0980
1180
3180
2180
4180
C180
FFE0
0180
0180
0180
0180
0180
ENDCHAR

STARTCHAR five
ENCODING 53
SWIDTH 602 0
DWIDTH 14 0
BBX 8 17 4 0
BITMAP
FF
FF
C0
C0
C0
C0
F8
0C
06
03
03
03
03
03
06
8E
F8
ENDCHAR

STARTCHAR six
ENCODING 54
SWIDTH 602 0
DWIDTH 14 0
BBX 11 17 2 0
BITMAP
0FC0
1840
2000
6000
4000
C000
CF00
F1C0
E0C0
C060
C060
C060
C060
4060
60C0
3180
1F00
ENDCHAR

STARTCHAR seven
ENCODING 55
SWIDTH 602 0
DWIDTH 14 0
BBX 10 17 3 0
BITMAP
FFC0
FFC0
0080
0080
0100
0300
0200
0600
0400
0C00
1800
1800
3000
3000
7000
6000
6000
ENDCHAR

STARTCHAR eight
ENCODING 56
SWIDTH 602 0
DWIDTH 14 0
BBX 11 17 2 0
BITMAP
1F80
30C0
6060
6060
6060
70C0
3980
1F00
1F00
23C0
40C0
C060
C060
C060
C040
70C0
1F00
ENDCHAR

STARTCHAR nine
ENCODING 57
SWIDTH 602 0
DWIDTH 14 0
BBX 11 17 2 0
BITMAP
1F00
7180
60C0
C040
C060
C060
C060
60E0
71E0
1E60
0060
0060
00C0
00C0
0180
4300
7E00
ENDCHAR

STARTCHAR colon
ENCODING 58
SWIDTH 602 0
DWIDTH 14 0
BBX 3 13 6 0
BITMAP
E0
E0
E0
00
00
00
00
00
00
00
E0
E0
E0
ENDCHAR

STARTCHAR semicolon
ENCODING 59
SWIDTH 602 0
DWIDTH 14 0
BBX 3 17 6 -4
BITMAP
E0
E0
E0
00
00
00
00
00
00
00
E0
E0
E0
60
60
40
C0
ENDCHAR

STARTCHAR less
ENCODING 60
SWIDTH 602 0
DWIDTH 14 0
BBX 11 13 2 0
BITMAP
0020
0060
0180
0600
0C00
3000
C000
3000
0C00
0600
0180
0060
0020
ENDCHAR

STARTCHAR equal
ENCODING 61
SWIDTH 602 0
DWIDTH 14 0
BBX 12 6 1 3
BITMAP
FFF0
0000
0000
0000
0000
FFF0
ENDCHAR

STARTCHAR greater
ENCODING 62
SWIDTH 602 0
DWIDTH 14 0
BBX 12 13 1 0
BITMAP
8000
C000
3000
0C00
0300
00C0
0030
00C0
0300
0C00
3000
C000
8000
ENDCHAR

STARTCHAR question
ENCODING 63
SWIDTH 602 0
DWIDTH 14 0
BBX 10 17 2 0
BITMAP
FF00
8180
80C0
00C0
00C0
0180
0300
0600
0C00
0800
1800
1800
0000
0000
0000
1800
1800
ENDCHAR

STARTCHAR at
ENCODING 64
SWIDTH 602 0
DWIDTH 14 0
BBX 12 17 2 0
BITMAP
0F80
18C0
2060
6020
41E0
C620
8420
8820
8860
8860
88E0
89A0
C730
4000
6000
3080
0F00
ENDCHAR

STARTCHAR A
ENCODING 65
SWIDTH 602 0
DWIDTH 14 0
BBX 14 17 0 0
BITMAP
0300
0380
0780
0580
04C0
0CC0
08C0
0860
1860
1060
1030
3FF0
2030
6018
6018
401C
C00C
ENDCHAR

STARTCHAR B
ENCODING 66
SWIDTH 602 0
DWIDTH 14 0
BBX 10 17 3 0
BITMAP
FE00
C300
C180
C180
C180
C180
C700
FE00
C600
C180
C080
C0C0
C0C0
C0C0
C0C0
C180
FF00
ENDCHAR

STARTCHAR C
ENCODING 67
SWIDTH 602 0
DWIDTH 14 0
BBX 12 17 1 0
BITMAP
07F0
1810
3000
6000
6000
C000
C000
C000
C000
C000
C000
E000
6000
7000
3C10
1FF0
07E0
ENDCHAR

STARTCHAR D
ENCODING 68
SWIDTH 602 0
DWIDTH 14 0
BBX 12 17 2 0
BITMAP
FF00
C1C0
C0C0
C060
C060
C030
C030
C030
C030
C030
C030
C030
C060
C060
C0C0
C180
FE00
ENDCHAR

STARTCHAR E
ENCODING 69
SWIDTH 602 0
DWIDTH 14 0
BBX 11 17 2 0
BITMAP
FFC0
C000
C000
C000
C000
C000
C000
FF80
C000
C000
C000
C000
C000
C000
C000
C000
FFE0
ENDCHAR

STARTCHAR F
ENCODING 70
SWIDTH 602 0
DWIDTH 14 0
BBX 10 17 3 0
BITMAP
FFC0
C000
C000
C000
C000
C000
C000
C000
FF80
C000
C000
C000
C000
C000
C000
C000
C000
ENDCHAR

STARTCHAR G
ENCODING 71
SWIDTH 602 0
DWIDTH 14 0
BBX 12 17 1 0
BITMAP
07F0
1810
3000
6000
6000
C000
C000
C000
C000
C030
C030
E030
6030
7030
3C30
1FF0
07E0
ENDCHAR

STARTCHAR H
ENCODING 72
SWIDTH 602 0
DWIDTH 14 0
BBX 11 17 2 0
BITMAP
C060
C060
C060
C060
C060
C060
C060
FFE0
C060
C060
C060
C060
C060
C060
C060
C060
C060
ENDCHAR

STARTCHAR I
ENCODING 73
SWIDTH 602 0
DWIDTH 14 0
BBX 10 17 2 0
BITMAP
FFC0
0C00
0C00
0C00
0C00
0C00
0C00
0C00
0C00
0C00
0C00
0C00
0C00
0C00
0C00
0C00
FFC0
ENDCHAR

STARTCHAR J
ENCODING 74
SWIDTH 602 0
DWIDTH 14 0
BBX 8 17 3 0
BITMAP
7F
03
03
03
03
03
03
03
03
03
03
03
03
03
02
86
FC
ENDCHAR

STARTCHAR K
ENCODING 75
SWIDTH 602 0
DWIDTH 14 0
BBX 12 17 2 0
BITMAP
C060
C0C0
C180
C300
C200
C600
CC00
D800
D800
FC00
CE00
C600
C700
C380
C1C0
C0E0
C070
ENDCHAR

STARTCHAR L
ENCODING 76
SWIDTH 602 0
DWIDTH 14 0
BBX 10 17 3 0
BITMAP
C000
C000
C000
C000
C000
C000
C000
C000
C000
C000
C000
C000
C000
C000
C000
C000
FFC0
ENDCHAR

STARTCHAR M
ENCODING 77
SWIDTH 602 0
DWIDTH 14 0
BBX 13 17 1 0
BITMAP
E038
E038
E038
F078
D058
D058
D058
D898
C898
C898
CC98
C518
C518
C518
C718
C218
C018
ENDCHAR

STARTCHAR N
ENCODING 78
SWIDTH 602 0
DWIDTH 14 0
BBX 11 17 2 0
BITMAP
C060
E060
E060
F060
F860
D860
DC60
CC60
CE60
C660
C760
C360
C3E0
C1E0
C0E0
C0E0
C060
ENDCHAR

STARTCHAR O
ENCODING 79
SWIDTH 602 0
DWIDTH 14 0
BBX 13 17 1 0
BITMAP
0F80
3060
2020
6030
4010
C018
C018
C018
C018
C018
C018
C018
4010
6030
2020
3060
0F80
ENDCHAR

STARTCHAR P
ENCODING 80
SWIDTH 602 0
DWIDTH 14 0
BBX 11 17 3 0
BITMAP
FF80
C0C0
C060
C060
C060
C060
C060
C0C0
C180
FE00
C000
C000
C000
C000
C000
C000
C000
ENDCHAR

STARTCHAR Q
ENCODING 81
SWIDTH 602 0
DWIDTH 14 0
BBX 14 21 1 -4
BITMAP
0F80
3040
2020
6030
4010
C018
C018
C018
C018
C018
C018
C018
4018
6030
2030
3060
0FC0
00C0
0070
003C
0008
ENDCHAR

STARTCHAR R
ENCODING 82
SWIDTH 602 0
DWIDTH 14 0
BBX 12 17 2 0
BITMAP
FF00
C180
C0C0
C0C0
C0C0
C0C0
C180
C380
FF00
C600
C700
C300
C180
C1C0
C0C0
C0E0
C070
ENDCHAR

STARTCHAR S
ENCODING 83
SWIDTH 602 0
DWIDTH 14 0
BBX 11 17 2 0
BITMAP
1FC0
6040
C000
C000
C000
E000
7000
3C00
0F00
03C0
00E0
0060
0060
0060
0040
C0C0
FF00
ENDCHAR

STARTCHAR T
ENCODING 84
SWIDTH 602 0
DWIDTH 14 0
BBX 14 17 0 0
BITMAP
FFFC
0300
0300
0300
0300
0300
0300
0300
0300
0300
0300
0300
0300
0300
0300
0300
0300
ENDCHAR

STARTCHAR U
ENCODING 85
SWIDTH 602 0
DWIDTH 14 0
BBX 11 17 2 0
BITMAP
C060
C060
C060
C060
C060
C060
C060
C060
C060
C060
C060
C060
C060
C060
60C0
60C0
1F00
ENDCHAR

STARTCHAR V
ENCODING 86
SWIDTH 602 0
DWIDTH 14 0
BBX 14 17 0 0
BITMAP
C00C
6008
6018
6018
3010
3030
3030
1820
1860
1C60
0C40
0CC0
0EC0
0680
0780
0700
0300
ENDCHAR

STARTCHAR W
ENCODING 87
SWIDTH 602 0
DWIDTH 14 0
BBX 14 17 0 0
BITMAP
C00C
C30C
C38C
C38C
6788
6788
6798
6598
6498
6CD8
6CD8
6CD0
3CD0
38F0
3870
3870
3870
ENDCHAR

STARTCHAR X
ENCODING 88
SWIDTH 602 0
DWIDTH 14 0
BBX 14 17 0 0
BITMAP
600C
3018
3830
1860
0C60
0EC0
0780
0300
0380
0780
05C0
0CC0
1860
1070
3030
6018
C01C
ENDCHAR

STARTCHAR Y
ENCODING 89
SWIDTH 602 0
DWIDTH 14 0
BBX 14 17 0 0
BITMAP
E00C
6018
3010
3830
1860
1C40
0CC0
0680
0780
0300
0300
0300
0300
0300
0300
0300
0300
ENDCHAR

STARTCHAR Z
ENCODING 90
SWIDTH 602 0
DWIDTH 14 0
BBX 12 17 1 0
BITMAP
7FF0
0070
0060
00E0
01C0
0180
0380
0700
0600
0E00
1C00
1800
3800
7000
6000
E000
FFF0
ENDCHAR

STARTCHAR bracketleft
ENCODING 91
SWIDTH 602 0
DWIDTH 14 0
BBX 7 22 5 -4
BITMAP
FE
C0
C0
C0
C0
C0
C0
C0
C0
C0
C0
C0
C0
C0
C0
C0
C0
C0
C0
C0
C0
FE
ENDCHAR

STARTCHAR backslash
ENCODING 92
SWIDTH 602 0
DWIDTH 14 0
BBX 12 22 1 -4
BITMAP
C000
4000
2000
2000
1000
1000
0800
0800
0400
0400
0200
0200
0300
0100
0180
0080
00C0
0040
0060
0020
0030
0010
ENDCHAR

STARTCHAR bracketright
ENCODING 93
SWIDTH 602 0
DWIDTH 14 0
BBX 7 22 2 -4
BITMAP
FE
06
06
06
06
06
06
06
06
06
06
06
06
06
06
06
06
06
06
06
06
FE
ENDCHAR

STARTCHAR asciicircum
ENCODING 94
SWIDTH 602 0
DWIDTH 14 0
BBX 12 13 1 3
BITMAP
0200
0600
0600
0F00
0900
1980
1080
1080
2040
2040
6060
4020
C030
ENDCHAR

STARTCHAR underscore
ENCODING 95
SWIDTH 602 0
DWIDTH 14 0
BBX 14 1 0 -2
BITMAP
FFFC
ENDCHAR

STARTCHAR quoteleft
ENCODING 96
SWIDTH 602 0
DWIDTH 14 0
BBX 3 7 6 11
BITMAP
60
40
C0
C0
E0
E0
E0
ENDCHAR

STARTCHAR a
ENCODING 97
SWIDTH 602 0
DWIDTH 14 0
BBX 12 13 2 0
BITMAP
3F00
4180
00C0
00C0
00C0
1FC0
70C0
60C0
C0C0
C0C0
C0C0
63C0
3C70
ENDCHAR

STARTCHAR b
ENCODING 98
SWIDTH 602 0
DWIDTH 14 0
BBX 11 18 2 0
BITMAP
C000
C000
C000
C000
C000
CF00
DFC0
F0C0
E0E0
C060
C060
C060
C060
C060
C040
C0C0
F180
CF00
ENDCHAR

STARTCHAR c
ENCODING 99
SWIDTH 602 0
DWIDTH 14 0
BBX 10 13 2 0
BITMAP
0FC0
3040
6000
6000
C000
C000
C000
C000
C000
6000
6000
3040
1FC0
ENDCHAR

STARTCHAR d
ENCODING 100
SWIDTH 602 0
DWIDTH 14 0
BBX 11 18 2 0
BITMAP
0060
0060
0060
0060
0060
1E60
31E0
6060
4060
C060
C060
C060
C060
C060
E0E0
61E0
7F60
1E60
ENDCHAR

STARTCHAR e
ENCODING 101
SWIDTH 602 0
DWIDTH 14 0
BBX 11 13 2 0
BITMAP
0F80
31C0
60C0
4060
C060
C060
FFE0
C000
C000
4000
6000
3020
0FE0
ENDCHAR

STARTCHAR f
ENCODING 102
SWIDTH 602 0
DWIDTH 14 0
BBX 11 18 2 0
BITMAP
07E0
0C20
1800
1800
1800
FFE0
1800
1800
1800
1800
1800
1800
1800
1800
1800
1800
1800
1800
ENDCHAR

STARTCHAR g
ENCODING 103
SWIDTH 602 0
DWIDTH 14 0
BBX 11 18 2 -5
BITMAP
1F60
31E0
6060
4060
C060
C060
C060
C060
C060
E0E0
61E0
7F60
1E60
0060
0060
0040
4080
7F00
ENDCHAR

STARTCHAR h
ENCODING 104
SWIDTH 602 0
DWIDTH 14 0
BBX 10 18 2 0
BITMAP
C000
C000
C000
C000
C000
CF00
DF80
F1C0
E0C0
C0C0
C0C0
C0C0
C0C0
C0C0
C0C0
C0C0
C0C0
C0C0
ENDCHAR

STARTCHAR i
ENCODING 105
SWIDTH 602 0
DWIDTH 14 0
BBX 7 18 2 0
BITMAP
06
06
00
00
00
FE
06
06
06
06
06
06
06
06
06
06
06
06
ENDCHAR

STARTCHAR j
ENCODING 106
SWIDTH 602 0
DWIDTH 14 0
BBX 8 23 2 -5
BITMAP
03
03
00
00
00
7F
03
03
03
03
03
03
03
03
03
03
03
03
03
03
03
86
FC
ENDCHAR

STARTCHAR k
ENCODING 107
SWIDTH 602 0
DWIDTH 14 0
BBX 11 18 3 0
BITMAP
C000
C000
C000
C000
C000
C1C0
C300
C700
C600
CC00
D800
F800
DC00
CE00
C700
C380
C180
C0E0
ENDCHAR

STARTCHAR l
ENCODING 108
SWIDTH 602 0
DWIDTH 14 0
BBX 7 18 2 0
BITMAP
FE
06
06
06
06
06
06
06
06
06
06
06
06
06
06
06
06
06
ENDCHAR

STARTCHAR m
ENCODING 109
SWIDTH 602 0
DWIDTH 14 0
BBX 12 13 1 0
BITMAP
DCE0
BFF0
E730
E730
C630
C630
C630
C630
C630
C630
C630
C630
C630
ENDCHAR

STARTCHAR n
ENCODING 110
SWIDTH 602 0
DWIDTH 14 0
BBX 10 13 2 0
BITMAP
CF00
DF80
F1C0
E0C0
C0C0
C0C0
C0C0
C0C0
C0C0
C0C0
C0C0
C0C0
C0C0
ENDCHAR

STARTCHAR o
ENCODING 111
SWIDTH 602 0
DWIDTH 14 0
BBX 12 13 1 0
BITMAP
1F80
30C0
6060
6060
C030
C030
C030
C030
C030
6060
6060
30C0
1F80
ENDCHAR

STARTCHAR p
ENCODING 112
SWIDTH 602 0
DWIDTH 14 0
BBX 11 18 2 -5
BITMAP
CF00
DFC0
F0C0
E0E0
C060
C060
C060
C060
C060
C040
C0C0
F180
CF00
C000
C000
C000
C000
C000
ENDCHAR

STARTCHAR q
ENCODING 113
SWIDTH 602 0
DWIDTH 14 0
BBX 11 18 1 -5
BITMAP
1F60
31E0
6060
4060
C060
C060
C060
C060
C060
E0E0
61E0
7F60
1E60
0060
0060
0060
0060
0060
ENDCHAR

STARTCHAR r
ENCODING 114
SWIDTH 602 0
DWIDTH 14 0
BBX 9 13 4 0
BITMAP
CF80
DF80
F880
E080
C000
C000
C000
C000
C000
C000
C000
C000
C000
ENDCHAR

STARTCHAR s
ENCODING 115
SWIDTH 602 0
DWIDTH 14 0
BBX 10 13 2 0
BITMAP
3F80
6080
C000
C000
E000
7C00
3F00
07C0
01C0
00C0
00C0
8180
FF00
ENDCHAR

STARTCHAR t
ENCODING 116
SWIDTH 602 0
DWIDTH 14 0
BBX 11 16 2 0
BITMAP
1800
1800
1800
FFE0
1800
1800
1800
1800
1800
1800
1800
1800
1800
1800
0C00
07E0
ENDCHAR

STARTCHAR u
ENCODING 117
SWIDTH 602 0
DWIDTH 14 0
BBX 10 13 2 0
BITMAP
C0C0
C0C0
C0C0
C0C0
C0C0
C0C0
C0C0
C0C0
C0C0
C1C0
E3C0
7EC0
3CC0
ENDCHAR

STARTCHAR v
ENCODING 118
SWIDTH 602 0
DWIDTH 14 0
BBX 13 13 1 0
BITMAP
C018
6010
6030
3020
3060
3840
18C0
18C0
0D80
0D80
0F00
0700
0700
ENDCHAR

STARTCHAR w
ENCODING 119
SWIDTH 602 0
DWIDTH 14 0
BBX 14 13 0 0
BITMAP
C00C
C30C
E30C
6388
6488
6498
6498
64D8
7850
3850
3870
3870
3070
ENDCHAR

STARTCHAR x
ENCODING 120
SWIDTH 602 0
DWIDTH 14 0
BBX 12 13 1 0
BITMAP
E030
7060
38C0
1880
1D80
0F00
0600
0F00
1B80
19C0
30C0
6060
C070
ENDCHAR

STARTCHAR y
ENCODING 121
SWIDTH 602 0
DWIDTH 14 0
BBX 13 18 1 -5
BITMAP
E018
6030
6030
7060
3060
3040
18C0
1880
1C80
0D80
0D00
0700
0600
0600
0400
0400
0800
7000
ENDCHAR

STARTCHAR z
ENCODING 122
SWIDTH 602 0
DWIDTH 14 0
BBX 11 13 2 0
BITMAP
FFE0
00E0
00C0
0180
0300
0700
0E00
1C00
1800
3000
6000
E000
FFE0
ENDCHAR

STARTCHAR braceleft
ENCODING 123
SWIDTH 602 0
DWIDTH 14 0
BBX 9 22 3 -4
BITMAP
0780
0C00
1800
1800
1800
1C00
0C00
0C00
0C00
0800
1000
F000
1800
0C00
0C00
0C00
0C00
1800
1800
1800
0C00
0780
ENDCHAR

STARTCHAR bar
ENCODING 124
SWIDTH 602 0
DWIDTH 14 0
BBX 1 22 7 -4
BITMAP
80
80
80
80
80
80
80
80
80
80
80
80
80
80
80
80
80
80
80
80
80
80
ENDCHAR

STARTCHAR braceright
ENCODING 125
SWIDTH 602 0
DWIDTH 14 0
BBX 9 22 3 -4
BITMAP
F000
1800
0C00
0C00
0C00
1C00
1C00
1800
1800
0800
0400
0780
0C00
1800
1800
1800
1C00
0C00
0C00
0C00
1800
F000
ENDCHAR

STARTCHAR asciitilde
ENCODING 126
SWIDTH 602 0
DWIDTH 14 0
BBX 12 3 1 4
BITMAP
7810
8F10
81E0
ENDCHAR

STARTCHAR exclamdown
ENCODING 161
SWIDTH 602 0
DWIDTH 14 0
BBX 2 18 6 -5
BITMAP
C0
C0
00
00
00
80
80
80
80
80
80
80
C0
C0
C0
C0
C0
C0
ENDCHAR

STARTCHAR cent
ENCODING 162
SWIDTH 602 0
DWIDTH 14 0
BBX 9 17 3 0
BITMAP
0400
0400
1F80
3480
6400
4400
C400
C400
C400
C400
C400
4400
6400
3480
1F80
0400
0400
ENDCHAR

STARTCHAR sterling
ENCODING 163
SWIDTH 602 0
DWIDTH 14 0
BBX 9 17 3 0
BITMAP
0F80
1880
3000
3000
3000
3000
3000
FC00
3000
3000
3000
3000
3000
6000
4000
FF80
FF80
ENDCHAR

STARTCHAR fraction
ENCODING 164
SWIDTH 602 0
DWIDTH 14 0
BBX 14 17 0 0
BITMAP
000C
0008
0010
0030
0060
0040
0080
0180
0100
0200
0400
0C00
0800
1000
3000
6000
C000
ENDCHAR

STARTCHAR yen
ENCODING 165
SWIDTH 602 0
DWIDTH 14 0
BBX 13 17 1 0
BITMAP
E018
6030
3020
3040
1840
1C80
0D00
0F00
0600
3FC0
0600
0600
3FC0
0600
0600
0600
0600
ENDCHAR

STARTCHAR florin
ENCODING 166
SWIDTH 602 0
DWIDTH 14 0
BBX 10 21 3 -4
BITMAP
03C0
0C00
0800
1800
1800
1800
3000
3000
FC00
3000
3000
3000
6000
6000
6000
6000
6000
6000
C000
C000
C000
ENDCHAR

STARTCHAR section
ENCODING 167
SWIDTH 602 0
DWIDTH 14 0
BBX 9 21 3 -4
BITMAP
1F80
6080
C000
C000
E000
F000
7C00
2F00
4380
C380
C180
E180
7100
3A00
1F00
0780
0380
0180
0180
8300
FE00
ENDCHAR

STARTCHAR currency
ENCODING 168
SWIDTH 602 0
DWIDTH 14 0
BBX 11 11 2 3
BITMAP
8020
7FC0
3180
2080
4040
4040
4040
2080
3180
4E40
8060
ENDCHAR

STARTCHAR quotesingle
ENCODING 169
SWIDTH 602 0
DWIDTH 14 0
BBX 3 7 6 11
BITMAP
E0
E0
E0
60
40
40
40
ENDCHAR

STARTCHAR quotedblleft
ENCODING 170
SWIDTH 602 0
DWIDTH 14 0
BBX 8 5 3 13
BITMAP
41
82
82
C3
C3
ENDCHAR

STARTCHAR guillemotleft
ENCODING 171
SWIDTH 602 0
DWIDTH 14 0
BBX 12 11 2 1
BITMAP
0410
0C30
1040
2080
4100
8200
4100
2080
1040
0820
0C30
ENDCHAR

STARTCHAR guilsinglleft
ENCODING 172
SWIDTH 602 0
DWIDTH 14 0
BBX 6 11 5 1
BITMAP
04
0C
10
20
40
80
40
20
10
08
0C
ENDCHAR

STARTCHAR guilsinglright
ENCODING 173
SWIDTH 602 0
DWIDTH 14 0
BBX 6 11 4 1
BITMAP
C0
40
20
10
08
04
08
10
20
C0
80
ENDCHAR

STARTCHAR fi
ENCODING 174
SWIDTH 602 0
DWIDTH 14 0
BBX 11 18 1 0
BITMAP
1E00
3060
3060
3000
3000
FFE0
3060
3060
3060
3060
3060
3060
3060
3060
3060
3060
3060
3060
ENDCHAR

STARTCHAR fl
ENCODING 175
SWIDTH 602 0
DWIDTH 14 0
BBX 11 18 1 0
BITMAP
0FE0
1060
3060
3060
3060
FE60
3060
3060
3060
3060
3060
3060
3060
3060
3060
3060
3060
3060
ENDCHAR

STARTCHAR endash
ENCODING 177
SWIDTH 602 0
DWIDTH 14 0
BBX 11 1 2 6
BITMAP
FFE0
ENDCHAR

STARTCHAR dagger
ENCODING 178
SWIDTH 602 0
DWIDTH 14 0
BBX 10 21 2 -4
BITMAP
0C00
0C00
0C00
0800
0800
0800
FFC0
0800
0800
0800
0800
0800
0800
0800
0C00
0C00
0C00
0C00
0C00
0C00
0C00
ENDCHAR

STARTCHAR daggerdbl
ENCODING 179
SWIDTH 602 0
DWIDTH 14 0
BBX 10 21 2 -4
BITMAP
0C00
0C00
0C00
0800
0800
0800
FFC0
0800
0800
0800
0800
0800
0800
0800
FFC0
0800
0800
0800
0C00
0C00
0C00
ENDCHAR

STARTCHAR periodcentered
ENCODING 180
SWIDTH 602 0
DWIDTH 14 0
BBX 2 2 6 5
BITMAP
C0
C0
ENDCHAR

STARTCHAR paragraph
ENCODING 182
SWIDTH 602 0
DWIDTH 14 0
BBX 9 21 2 -4
BITMAP
3F80
7C80
FC80
FC80
FC80
FC80
7C80
3C80
0C80
0480
0480
0480
0480
0480
0480
0480
0480
0480
0480
0480
0480
ENDCHAR

STARTCHAR bullet
ENCODING 183
SWIDTH 602 0
DWIDTH 14 0
BBX 7 7 4 2
BITMAP
FE
FE
FE
FE
FE
FE
FE
ENDCHAR

STARTCHAR quotesinglbase
ENCODING 184
SWIDTH 602 0
DWIDTH 14 0
BBX 3 7 6 -4
BITMAP
E0
E0
E0
60
60
40
C0
ENDCHAR

STARTCHAR quotedblbase
ENCODING 185
SWIDTH 602 0
DWIDTH 14 0
BBX 8 6 3 -4
BITMAP
C3
C3
41
41
41
82
ENDCHAR

STARTCHAR quotedblright
ENCODING 186
SWIDTH 602 0
DWIDTH 14 0
BBX 8 6 3 12
BITMAP
C3
C3
41
41
41
82
ENDCHAR

STARTCHAR guillemotright
ENCODING 187
SWIDTH 602 0
DWIDTH 14 0
BBX 12 11 1 1
BITMAP
C300
4100
2080
1040
0820
0410
0820
1040
2080
C300
8200
ENDCHAR

STARTCHAR ellipsis
ENCODING 188
SWIDTH 602 0
DWIDTH 14 0
BBX 12 2 1 0
BITMAP
C630
C630
ENDCHAR

STARTCHAR perthousand
ENCODING 189
SWIDTH 602 0
DWIDTH 14 0
BBX 14 17 0 0
BITMAP
6180
9100
9100
9200
9200
9400
6400
0C00
0800
1B18
14A4
14A4
24A4
24A4
44A4
44A4
C318
ENDCHAR

STARTCHAR questiondown
ENCODING 191
SWIDTH 602 0
DWIDTH 14 0
BBX 10 18 2 -5
BITMAP
0600
0600
0000
0000
0000
0600
0600
0400
0C00
0800
3000
6000
4000
C000
C000
C040
6040
3FC0
ENDCHAR

STARTCHAR grave
ENCODING 193
SWIDTH 602 0
DWIDTH 14 0
BBX 5 3 5 15
BITMAP
E0
20
18
ENDCHAR

STARTCHAR acute
ENCODING 194
SWIDTH 602 0
DWIDTH 14 0
BBX 5 3 4 15
BITMAP
38
20
C0
ENDCHAR

STARTCHAR circumflex
ENCODING 195
SWIDTH 602 0
DWIDTH 14 0
BBX 8 3 3 15
BITMAP
18
24
C3
ENDCHAR

STARTCHAR tilde
ENCODING 196
SWIDTH 602 0
DWIDTH 14 0
BBX 7 2 4 15
BITMAP
F6
DE
ENDCHAR

STARTCHAR macron
ENCODING 197
SWIDTH 602 0
DWIDTH 14 0
BBX 7 1 4 15
BITMAP
FE
ENDCHAR

STARTCHAR breve
ENCODING 198
SWIDTH 602 0
DWIDTH 14 0
BBX 7 3 4 15
BITMAP
82
C6
7C
ENDCHAR

STARTCHAR dotaccent
ENCODING 199
SWIDTH 602 0
DWIDTH 14 0
BBX 2 2 6 15
BITMAP
C0
C0
ENDCHAR

STARTCHAR dieresis
ENCODING 200
SWIDTH 602 0
DWIDTH 14 0
BBX 7 2 4 15
BITMAP
C6
C6
ENDCHAR

STARTCHAR ring
ENCODING 202
SWIDTH 602 0
DWIDTH 14 0
BBX 4 4 5 14
BITMAP
60
90
90
60
ENDCHAR

STARTCHAR cedilla
ENCODING 203
SWIDTH 602 0
DWIDTH 14 0
BBX 3 5 6 -5
BITMAP
40
80
60
20
E0
ENDCHAR

STARTCHAR hungarumlaut
ENCODING 205
SWIDTH 602 0
DWIDTH 14 0
BBX 7 3 4 15
BITMAP
36
6C
D8
ENDCHAR

STARTCHAR ogonek
ENCODING 206
SWIDTH 602 0
DWIDTH 14 0
BBX 4 4 5 -5
BITMAP
60
80
80
F0
ENDCHAR

STARTCHAR caron
ENCODING 207
SWIDTH 602 0
DWIDTH 14 0
BBX 8 3 3 15
BITMAP
C3
24
18
ENDCHAR

STARTCHAR emdash
ENCODING 208
SWIDTH 602 0
DWIDTH 14 0
BBX 13 1 1 6
BITMAP
FFF8
ENDCHAR

STARTCHAR AE
ENCODING 225
SWIDTH 602 0
DWIDTH 14 0
BBX 13 17 1 0
BITMAP
03F8
0380
0380
0780
0580
0580
0D80
09F0
1980
1980
1180
3180
3F80
2180
6180
4180
C1F8
ENDCHAR

STARTCHAR ordfeminine
ENCODING 227
SWIDTH 602 0
DWIDTH 14 0
BBX 9 9 3 8
BITMAP
FE00
8700
0300
0300
3F00
E300
C300
C700
7B80
ENDCHAR

STARTCHAR Lslash
ENCODING 232
SWIDTH 602 0
DWIDTH 14 0
BBX 13 17 0 0
BITMAP
1800
1800
1800
1800
1800
1900
1B00
1E00
3800
D800
9800
1800
1800
1800
1800
1800
1FF8
ENDCHAR

STARTCHAR Oslash
ENCODING 233
SWIDTH 602 0
DWIDTH 14 0
BBX 13 17 1 0
BITMAP
0F98
3070
2020
6070
4050
C098
C118
C118
C218
C418
C418
C818
5810
7030
2020
7060
CF80
ENDCHAR

STARTCHAR OE
ENCODING 234
SWIDTH 602 0
DWIDTH 14 0
BBX 12 17 2 0
BITMAP
3FF0
6300
6300
C300
C300
C300
C300
C3E0
C300
C300
C300
C300
C300
C300
6300
6300
3FF0
ENDCHAR

STARTCHAR ordmasculine
ENCODING 235
SWIDTH 602 0
DWIDTH 14 0
BBX 9 9 3 8
BITMAP
3E00
6300
C180
C180
C180
C180
C180
6300
3E00
ENDCHAR

STARTCHAR ae
ENCODING 241
SWIDTH 602 0
DWIDTH 14 0
BBX 13 13 1 0
BITMAP
7DE0
4F30
0610
0618
0618
0618
3FF8
6600
C600
C600
C600
FF08
79F8
ENDCHAR

STARTCHAR dotlessi
ENCODING 245
SWIDTH 602 0
DWIDTH 14 0
BBX 7 13 2 0
BITMAP
FE
06
06
06
06
06
06
06
06
06
06
06
06
ENDCHAR

STARTCHAR lslash
ENCODING 248
SWIDTH 602 0
DWIDTH 14 0
BBX 10 18 2 0
BITMAP
FE00
0600
0600
0600
0600
0640
06C0
0780
0600
1E00
3600
2600
0600
0600
0600
0600
0600
0600
ENDCHAR

STARTCHAR oslash
ENCODING 249
SWIDTH 602 0
DWIDTH 14 0
BBX 12 13 1 0
BITMAP
1FB0
30C0
60E0
60E0
C130
C230
C630
C430
C830
7060
7060
30C0
DF80
ENDCHAR

STARTCHAR oe
ENCODING 250
SWIDTH 602 0
DWIDTH 14 0
BBX 12 13 1 0
BITMAP
39C0
6F20
4630
C630
C630
C630
C7F0
C600
C600
C600
4600
6F10
39F0
ENDCHAR

STARTCHAR germandbls
ENCODING 251
SWIDTH 602 0
DWIDTH 14 0
BBX 11 18 3 0
BITMAP
3C00
6700
C300
C300
C200
C200
C400
CC00
CC00
CE00
C700
C380
C0C0
C060
C060
C060
C840
CF80
ENDCHAR
ENDFONT
